<svg xmlns="http://www.w3.org/2000/svg" xmlns:xlink="http://www.w3.org/1999/xlink" width="500" zoomAndPan="magnify" viewBox="0 0 375 374.999991" height="500" preserveAspectRatio="xMidYMid meet" version="1.0"><defs><clipPath id="e38d54d5ec"><path d="M 46.875 0 L 328.125 0 L 328.125 375 L 46.875 375 Z M 46.875 0 " clip-rule="nonzero"/></clipPath></defs><g clip-path="url(#e38d54d5ec)"><path fill="#0dd3ba" d="M 187.5 0 C 109.945312 0 46.875 63.070312 46.875 140.625 C 46.875 238.101562 173.8125 366.164062 179.203125 371.578125 C 181.5 373.851562 184.5 375 187.5 375 C 190.5 375 193.5 373.851562 195.796875 371.578125 C 201.1875 366.164062 328.125 238.101562 328.125 140.625 C 328.125 63.070312 265.054688 0 187.5 0 Z M 187.5 210.9375 C 148.734375 210.9375 117.1875 179.390625 117.1875 140.625 C 117.1875 101.859375 148.734375 70.3125 187.5 70.3125 C 226.265625 70.3125 257.8125 101.859375 257.8125 140.625 C 257.8125 179.390625 226.265625 210.9375 187.5 210.9375 Z M 187.5 210.9375 " fill-opacity="1" fill-rule="nonzero"/></g></svg>