<svg xmlns="http://www.w3.org/2000/svg" xmlns:xlink="http://www.w3.org/1999/xlink" width="500" zoomAndPan="magnify" viewBox="0 0 375 374.999991" height="500" preserveAspectRatio="xMidYMid meet" version="1.0"><defs><g/><clipPath id="a73065ba10"><path d="M 56.25 0 L 318.75 0 C 349.816406 0 375 25.183594 375 56.25 L 375 318.75 C 375 349.816406 349.816406 375 318.75 375 L 56.25 375 C 25.183594 375 0 349.816406 0 318.75 L 0 56.25 C 0 25.183594 25.183594 0 56.25 0 Z M 56.25 0 " clip-rule="nonzero"/></clipPath></defs><rect x="-37.5" width="450" fill="#ffffff" y="-37.499999" height="449.999989" fill-opacity="1"/><rect x="-37.5" width="450" fill="#ffffff" y="-37.499999" height="449.999989" fill-opacity="1"/><g clip-path="url(#a73065ba10)"><rect x="-37.5" width="450" fill="#ffffff" y="-37.499999" height="449.999989" fill-opacity="1"/></g><g fill="#000000" fill-opacity="1"><g transform="translate(76.551861, 333.851271)"><g><path d="M 28.953125 -289.5 L 78.921875 -289.5 L 78.921875 -219.703125 C 78.921875 -216.003906 78.851562 -211.835938 78.71875 -207.203125 C 78.582031 -202.578125 78.382812 -198.285156 78.125 -194.328125 C 77.59375 -189.828125 77.195312 -185.195312 76.9375 -180.4375 L 80.5 -180.4375 C 83.144531 -193.394531 89.554688 -203.570312 99.734375 -210.96875 C 109.910156 -218.375 122.929688 -222.078125 138.796875 -222.078125 C 150.171875 -222.078125 160.484375 -220.09375 169.734375 -216.125 C 178.984375 -212.164062 186.847656 -206.484375 193.328125 -199.078125 C 199.804688 -191.679688 204.828125 -182.757812 208.390625 -172.3125 C 211.960938 -161.863281 213.75 -150.03125 213.75 -136.8125 L 213.75 -82.484375 C 213.75 -69.265625 211.960938 -57.300781 208.390625 -46.59375 C 204.828125 -35.882812 199.804688 -26.765625 193.328125 -19.234375 C 186.847656 -11.703125 178.984375 -5.953125 169.734375 -1.984375 C 160.484375 1.984375 150.171875 3.96875 138.796875 3.96875 C 122.929688 3.96875 109.910156 0.265625 99.734375 -7.140625 C 89.554688 -14.546875 83.144531 -24.859375 80.5 -38.078125 L 76.9375 -38.078125 L 76.9375 0 L 28.953125 0 Z M 78.921875 -82.484375 C 78.921875 -69.535156 82.6875 -59.09375 90.21875 -51.15625 C 97.757812 -43.226562 108.003906 -39.265625 120.953125 -39.265625 C 134.441406 -39.265625 145.019531 -43.296875 152.6875 -51.359375 C 160.351562 -59.421875 164.1875 -70.191406 164.1875 -83.671875 L 164.1875 -135.625 C 164.1875 -149.113281 160.351562 -159.753906 152.6875 -167.546875 C 145.019531 -175.347656 134.441406 -179.25 120.953125 -179.25 C 108.265625 -179.25 98.085938 -175.28125 90.421875 -167.34375 C 82.753906 -159.414062 78.921875 -148.84375 78.921875 -135.625 Z M 78.921875 -82.484375 "/></g></g></g></svg>