<svg xmlns="http://www.w3.org/2000/svg" xmlns:xlink="http://www.w3.org/1999/xlink" width="240" zoomAndPan="magnify" viewBox="0 0 180 48" height="64" preserveAspectRatio="xMidYMid meet" version="1.0"><defs><g/></defs><g fill="#0f52ba" fill-opacity="1"><g transform="translate(32.04421, 32.693878)"><g><path d="M 12.875 -9.515625 C 13.957031 -9.285156 14.820312 -8.753906 15.46875 -7.921875 C 16.125 -7.085938 16.453125 -6.128906 16.453125 -5.046875 C 16.453125 -3.492188 15.910156 -2.265625 14.828125 -1.359375 C 13.742188 -0.453125 12.234375 0 10.296875 0 L 1.640625 0 L 1.640625 -18.5625 L 10 -18.5625 C 11.882812 -18.5625 13.359375 -18.128906 14.421875 -17.265625 C 15.492188 -16.410156 16.03125 -15.238281 16.03125 -13.75 C 16.03125 -12.65625 15.742188 -11.75 15.171875 -11.03125 C 14.597656 -10.3125 13.832031 -9.804688 12.875 -9.515625 Z M 6.15625 -11.0625 L 9.125 -11.0625 C 9.863281 -11.0625 10.429688 -11.222656 10.828125 -11.546875 C 11.222656 -11.867188 11.421875 -12.347656 11.421875 -12.984375 C 11.421875 -13.617188 11.222656 -14.101562 10.828125 -14.4375 C 10.429688 -14.78125 9.863281 -14.953125 9.125 -14.953125 L 6.15625 -14.953125 Z M 9.5 -3.65625 C 10.257812 -3.65625 10.84375 -3.828125 11.25 -4.171875 C 11.664062 -4.515625 11.875 -5.007812 11.875 -5.65625 C 11.875 -6.3125 11.65625 -6.820312 11.21875 -7.1875 C 10.789062 -7.5625 10.195312 -7.75 9.4375 -7.75 L 6.15625 -7.75 L 6.15625 -3.65625 Z M 9.5 -3.65625 "/></g></g></g><g fill="#0f52ba" fill-opacity="1"><g transform="translate(49.474097, 32.693878)"><g><path d="M 17.5625 -18.5625 L 11.140625 -6.140625 L 11.140625 0 L 6.609375 0 L 6.609375 -6.140625 L 0.1875 -18.5625 L 5.3125 -18.5625 L 8.921875 -10.796875 L 12.484375 -18.5625 Z M 17.5625 -18.5625 "/></g></g></g><g fill="#0f52ba" fill-opacity="1"><g transform="translate(67.221366, 32.693878)"><g><path d="M 8.359375 0.1875 C 7.003906 0.1875 5.785156 -0.03125 4.703125 -0.46875 C 3.628906 -0.914062 2.769531 -1.570312 2.125 -2.4375 C 1.476562 -3.300781 1.140625 -4.34375 1.109375 -5.5625 L 5.921875 -5.5625 C 5.992188 -4.875 6.234375 -4.347656 6.640625 -3.984375 C 7.046875 -3.617188 7.578125 -3.4375 8.234375 -3.4375 C 8.898438 -3.4375 9.425781 -3.585938 9.8125 -3.890625 C 10.195312 -4.203125 10.390625 -4.632812 10.390625 -5.1875 C 10.390625 -5.644531 10.234375 -6.019531 9.921875 -6.3125 C 9.617188 -6.613281 9.242188 -6.863281 8.796875 -7.0625 C 8.347656 -7.257812 7.707031 -7.476562 6.875 -7.71875 C 5.675781 -8.09375 4.695312 -8.460938 3.9375 -8.828125 C 3.175781 -9.203125 2.519531 -9.75 1.96875 -10.46875 C 1.425781 -11.195312 1.15625 -12.144531 1.15625 -13.3125 C 1.15625 -15.03125 1.78125 -16.378906 3.03125 -17.359375 C 4.289062 -18.335938 5.925781 -18.828125 7.9375 -18.828125 C 9.976562 -18.828125 11.625 -18.335938 12.875 -17.359375 C 14.132812 -16.378906 14.804688 -15.019531 14.890625 -13.28125 L 10 -13.28125 C 9.96875 -13.875 9.75 -14.34375 9.34375 -14.6875 C 8.9375 -15.03125 8.414062 -15.203125 7.78125 -15.203125 C 7.226562 -15.203125 6.785156 -15.054688 6.453125 -14.765625 C 6.117188 -14.484375 5.953125 -14.066406 5.953125 -13.515625 C 5.953125 -12.921875 6.234375 -12.453125 6.796875 -12.109375 C 7.359375 -11.773438 8.238281 -11.414062 9.4375 -11.03125 C 10.644531 -10.625 11.617188 -10.234375 12.359375 -9.859375 C 13.109375 -9.492188 13.753906 -8.957031 14.296875 -8.25 C 14.847656 -7.539062 15.125 -6.632812 15.125 -5.53125 C 15.125 -4.46875 14.851562 -3.503906 14.3125 -2.640625 C 13.78125 -1.773438 13.003906 -1.085938 11.984375 -0.578125 C 10.960938 -0.0664062 9.753906 0.1875 8.359375 0.1875 Z M 8.359375 0.1875 "/></g></g></g><g fill="#0f52ba" fill-opacity="1"><g transform="translate(83.487499, 32.693878)"><g><path d="M 22.671875 -18.5625 L 22.671875 0 L 18.140625 0 L 18.140625 -11.140625 L 14 0 L 10.34375 0 L 6.15625 -11.15625 L 6.15625 0 L 1.640625 0 L 1.640625 -18.5625 L 6.984375 -18.5625 L 12.1875 -5.71875 L 17.359375 -18.5625 Z M 22.671875 -18.5625 "/></g></g></g><g fill="#0f52ba" fill-opacity="1"><g transform="translate(107.767676, 32.693878)"><g><path d="M 13.203125 -3.28125 L 6.265625 -3.28125 L 5.15625 0 L 0.421875 0 L 7.140625 -18.5625 L 12.375 -18.5625 L 19.09375 0 L 14.3125 0 Z M 12.03125 -6.765625 L 9.734375 -13.578125 L 7.453125 -6.765625 Z M 12.03125 -6.765625 "/></g></g></g><g fill="#0f52ba" fill-opacity="1"><g transform="translate(127.260582, 32.693878)"><g><path d="M 13.015625 0 L 9.234375 -5.6875 L 5.90625 0 L 0.765625 0 L 6.71875 -9.4375 L 0.640625 -18.5625 L 5.90625 -18.5625 L 9.625 -12.96875 L 12.90625 -18.5625 L 18.046875 -18.5625 L 12.140625 -9.203125 L 18.28125 0 Z M 13.015625 0 "/></g></g></g></svg>